Coordinates
version=1
nRows=16
nColumns=40
inDegrees=yes

Units are S.I. units (second, meters, Newtons, ...)
Angles are in degrees.

endheader
time	pelvis_tilt	pelvis_list	pelvis_rotation	pelvis_tx	pelvis_ty	pelvis_tz	hip_flexion_r	hip_adduction_r	hip_rotation_r	knee_angle_r	knee_angle_r_beta	ankle_angle_r	subtalar_angle_r	mtp_angle_r	hip_flexion_l	hip_adduction_l	hip_rotation_l	knee_angle_l	knee_angle_l_beta	ankle_angle_l	subtalar_angle_l	mtp_angle_l	lumbar_extension	lumbar_bending	lumbar_rotation	arm_flex_r	arm_add_r	arm_rot_r	elbow_flex_r	pro_sup_r	wrist_flex_r	wrist_dev_r	arm_flex_l	arm_add_l	arm_rot_l	elbow_flex_l	pro_sup_l	wrist_flex_l	wrist_dev_l
     27.53750000	     -3.48610604	     -4.37641525	     -0.73905725	      0.89386815	      0.93368899	      0.43651298	     29.95384128	     -4.42555763	     -7.42570890	     45.86955333	     45.86955333	      5.84067133	    -13.67677871	      0.73013205	     10.71858564	     -4.21649552	     -9.90056243	     18.14137825	     18.14137825	     12.69463168	     -8.81245810	     -6.20948333	     -9.78973036	      2.46425436	      1.19689061	     -1.86022599	    -12.78688148	     -5.40257811	     32.66621850	     46.76192997	      0.00000000	      0.00000000	     16.69975884	    -15.53400795	     -3.84385467	     45.98541663	     46.50515687	      0.00000000	      0.00000000
     27.55071429	     -3.56264658	     -4.38889485	     -1.16177059	      0.89342065	      0.93327930	      0.43717380	     29.93163282	     -4.01687472	     -7.25158263	     42.35170428	     42.35170428	      5.84662732	    -12.22423371	      0.85490983	     10.28253879	     -4.26437046	    -10.10390604	     18.10066481	     18.10066481	     12.99257392	     -9.07815726	     -6.20109121	     -9.87366560	      2.53533015	      1.55361413	     -2.99015695	    -13.27873267	     -5.77013841	     31.18416608	     46.83281910	      0.00000000	      0.00000000	     17.11022239	    -15.58307805	     -4.00493486	     47.15917935	     46.53775944	      0.00000000	      0.00000000
     27.56392857	     -3.62310459	     -4.25090610	     -1.63062477	      0.89311109	      0.93281154	      0.43793481	     29.79420423	     -3.74938198	     -7.13934235	     38.66109563	     38.66109563	      5.32241608	    -10.69425214	     -0.63801597	      9.78900528	     -4.14174944	    -10.35844970	     18.02870045	     18.02870045	     13.42588454	     -9.29242801	     -5.86719333	     -9.92749970	      2.37658167	      1.01418967	     -1.82710111	    -12.97337453	     -9.34697387	     25.66174795	     47.28056661	      0.00000000	      0.00000000	     15.84908087	    -16.26403433	     -4.77004743	     51.34179706	     46.65195229	      0.00000000	      0.00000000
     27.57714286	     -3.68399664	     -4.24843877	     -2.06594498	      0.89286263	      0.93237189	      0.43876321	     29.55757595	     -3.32532151	     -7.21499010	     34.93395822	     34.93395822	      5.27428405	     -8.75879294	     -0.32494494	      9.29755640	     -4.17058097	    -10.58612253	     17.95160047	     17.95160047	     13.74896706	     -9.53079640	     -5.88561590	    -10.00995322	      2.46086521	      1.41910308	     -2.88889478	    -13.52475119	     -9.72798595	     24.83189453	     47.33313219	      0.00000000	      0.00000000	     16.24355561	    -16.16543633	     -4.99873712	     52.26492179	     46.68900089	      0.00000000	      0.00000000
     27.59035714	     -3.84665277	     -4.17152969	     -2.53027824	      0.89273301	      0.93179781	      0.43969288	     29.38503840	     -2.93449741	     -7.29635211	     31.23498207	     31.23498207	      5.06899996	     -6.69697975	      0.08357788	      8.86952914	     -4.11604262	    -10.85441114	     17.80735765	     17.80735765	     14.04220650	     -9.73950349	     -5.87969282	     -9.93196497	      2.46707709	      1.74595995	     -3.80564710	    -13.95491500	    -10.04000781	     24.06135743	     47.38217076	      0.00000000	      0.00000000	     16.43730614	    -16.12562361	     -5.20118199	     53.30206893	     46.72249914	      0.00000000	      0.00000000
     27.60357143	     -3.85288097	     -4.01257150	     -2.97637300	      0.89286775	      0.93135520	      0.44064720	     28.98025190	     -2.73436906	     -7.83286895	     27.64490707	     27.64490707	      4.74335265	     -3.89172338	     -0.01280938	      8.19041710	     -3.93945536	    -11.11583970	     17.53874303	     17.53874303	     14.44161808	     -9.86670085	     -5.58156053	    -10.09579942	      2.31662007	      1.57099973	     -2.99032703	    -13.74426667	    -16.79536977	     20.54160717	     48.03170617	      0.00000000	      0.00000000	     15.40238898	    -16.09579779	     -6.77099381	     56.94245815	     46.93716666	      0.00000000	      0.00000000
     27.61678571	     -3.93538654	     -3.97537060	     -3.37997656	      0.89308536	      0.93079424	      0.44181469	     28.59975958	     -2.28239045	     -8.20246715	     24.19167655	     24.19167655	      4.33531388	     -1.65992076	      0.70774301	      7.63268947	     -3.92393203	    -11.35796956	     17.35053254	     17.35053254	     14.74456643	    -10.02932982	     -5.62637408	    -10.09062626	      2.36213322	      1.89623490	     -3.84815900	    -14.20487461	    -16.92663205	     20.16589474	     48.04941581	      0.00000000	      0.00000000	     15.48380227	    -16.00329151	     -6.82331205	     57.90847635	     46.95665257	      0.00000000	      0.00000000
     27.63000000	     -4.05501634	     -3.85957562	     -3.77473182	      0.89345887	      0.93004192	      0.44308732	     28.31772211	     -1.91087913	     -8.61340503	     21.14416323	     21.14416323	      3.88861023	      0.54200571	      1.48500013	      7.07911104	     -3.81906515	    -11.62184562	     17.09740576	     17.09740576	     15.04068904	    -10.12105121	     -5.67849281	    -10.01401388	      2.27755780	      2.18492017	     -4.61394620	    -14.57713261	    -17.05191061	     19.86133006	     48.06538578	      0.00000000	      0.00000000	     15.44337019	    -15.87840649	     -6.91561468	     59.00241186	     46.98006861	      0.00000000	      0.00000000
     27.64321429	     -3.92682163	     -3.76121793	     -4.11288617	      0.89417209	      0.92959211	      0.44432451	     27.81158497	     -1.68897205	     -9.64104625	     18.62587282	     18.62587282	      3.63818741	      3.52661357	      2.63785762	      6.14898348	     -3.69381432	    -11.92542215	     16.67961747	     16.67961747	     15.32977221	    -10.09775492	     -5.75330299	    -10.26723096	      2.23459668	      2.41780969	     -5.33263519	    -14.97012693	    -17.34043002	     19.77022056	     48.08153560	      0.00000000	      0.00000000	     14.92725827	    -15.75475331	     -7.19411352	     61.35506830	     47.03469904	      0.00000000	      0.00000000
     27.65642857	     -4.10643398	     -3.69553932	     -4.39121371	      0.89487878	      0.92860636	      0.44583099	     27.66588506	     -1.27263002	    -10.02505842	     16.49724282	     16.49724282	      3.09555050	      4.96044312	      3.53160183	      5.64263412	     -3.64796169	    -12.09016991	     16.41194903	     16.41194903	     15.63274298	    -10.14216963	     -5.84844402	    -10.03696465	      2.25664183	      2.45940094	     -5.89854178	    -15.21557553	    -17.46024410	     19.66917929	     48.08853968	      0.00000000	      0.00000000	     14.62983031	    -15.63546800	     -7.32955733	     62.29317682	     47.05822985	      0.00000000	      0.00000000
     27.66964286	     -4.03068298	     -3.64950978	     -4.62552431	      0.89590727	      0.92788756	      0.44731486	     27.40597868	     -1.04104377	    -11.01421534	     15.21656848	     15.21656848	      3.16292336	      7.05312325	      5.42965963	      4.75921689	     -3.59349219	    -12.34379698	     15.99459007	     15.99459007	     15.89356820	    -10.02232901	     -6.11961705	    -10.19588442	      2.25514964	      2.11293138	     -6.35581909	    -15.52520852	    -17.86814392	     20.26720276	     48.06850435	      0.00000000	      0.00000000	     13.34731843	    -15.69355615	     -8.10885620	     65.33022191	     47.16126740	      0.00000000	      0.00000000
     27.68285714	     -4.15692092	     -3.62194846	     -4.80866299	      0.89704117	      0.92677357	      0.44903736	     27.33326730	     -0.66945469	    -11.29473397	     14.24604462	     14.24604462	      2.72318048	      7.52528646	      5.86688845	      4.18045639	     -3.60095645	    -12.49038057	     15.74287076	     15.74287076	     16.22109216	    -10.00715235	     -6.18679362	     -9.93611034	      2.32353117	      2.13398348	     -6.86341481	    -15.78514171	    -17.92296164	     20.18224461	     48.06863941	      0.00000000	      0.00000000	     13.06028891	    -15.50913002	     -8.17991145	     65.68947809	     47.16965662	      0.00000000	      0.00000000
     27.69607143	     -4.23144371	     -3.53515314	     -4.92370431	      0.89815319	      0.92544632	      0.45085810	     27.46272015	     -0.46708386	    -11.48721748	     14.18246788	     14.18246788	      2.49365639	      7.51612479	      5.96485265	      3.68016837	     -3.56767409	    -12.54676734	     15.73153229	     15.73153229	     16.63545345	    -10.12660430	     -6.31616506	     -9.75641385	      2.27096518	      1.99022419	     -7.01215568	    -15.81681023	    -17.93768064	     20.15285101	     48.06946524	      0.00000000	      0.00000000	     13.04920242	    -15.42057245	     -8.16034790	     65.75978781	     47.16931612	      0.00000000	      0.00000000
     27.70928571	     -4.06664805	     -3.72257857	     -4.99032514	      0.90006315	      0.92482137	      0.45272267	     26.79489765	     -0.04995858	    -12.23226777	     13.65406956	     13.65406956	      2.09530210	      8.27635328	      5.92516081	      2.48304002	     -3.77092078	    -12.83273761	     15.02406037	     15.02406037	     17.02965956	     -9.43587793	     -6.31633872	     -9.91544416	      2.58374647	      1.80156899	     -7.79687621	    -15.95700684	    -18.22837708	     21.46837899	     47.99037951	      0.00000000	      0.00000000	     11.69972748	    -15.13056745	     -8.72290317	     68.28055061	     47.25036975	      0.00000000	      0.00000000
     27.72250000	     -4.13035723	     -3.82271975	     -4.97803673	      0.90182854	      0.92355152	      0.45464924	     26.65173252	      0.24358780	    -12.51861495	     13.93644740	     13.93644740	      1.94714950	      7.97811793	      5.84500369	      1.85168631	     -3.93439033	    -12.77477153	     14.86347390	     14.86347390	     17.41750486	     -9.42672912	     -6.36208553	     -9.67450719	      2.81601548	      1.67135605	     -8.05431622	    -15.97765994	    -18.24674763	     21.46805608	     47.98632884	      0.00000000	      0.00000000	     11.30760621	    -14.86058006	     -8.65560898	     68.27133098	     47.24332106	      0.00000000	      0.00000000
     27.73571429	     -4.14652580	     -3.95013377	     -4.92148151	      0.90378440	      0.92230413	      0.45668199	     26.42522954	      0.52105433	    -12.73687542	     14.43828575	     14.43828575	      1.88019741	      7.54506038	      5.63079860	      1.14483515	     -4.13605651	    -12.70735615	     14.66864472	     14.66864472	     17.82351731	     -9.37043148	     -6.37181888	     -9.46591442	      3.08791173	      1.53575481	     -8.25112512	    -15.92987133	    -18.26750097	     21.54486300	     47.97927007	      0.00000000	      0.00000000	     10.84739079	    -14.54720563	     -8.56055541	     68.26986834	     47.23380890	      0.00000000	      0.00000000
